<?xml version="1.0" encoding="UTF-8"?>
<svg width="20px" height="20px" viewBox="0 0 20 20" version="1.1" xmlns="http://www.w3.org/2000/svg" xmlns:xlink="http://www.w3.org/1999/xlink">
    <!-- Generator: sketchtool 52.5 (67469) - http://www.bohemiancoding.com/sketch -->
    <title>8CE1190A-7096-4240-B599-631EFB6A61FC</title>
    <desc>Created with sketchtool.</desc>
    <defs>
        <path d="M19.8215366,8.00386499 L10.2112983,8.00386499 C10.2112983,9.00330237 10.2112983,11.0021771 10.2051719,12.0016145 L15.7740457,12.0016145 C15.5606436,13.0010519 14.8040365,14.4002643 13.7349843,15.1048676 C13.7339632,15.1038682 13.7329421,15.1108642 13.7309,15.1098648 C12.3095813,16.0483365 10.4338899,16.2612167 9.04116093,15.9813742 C6.85812975,15.5476184 5.13049236,13.9645096 4.42902257,11.9536415 C4.43310682,11.9506432 4.43617,11.922659 4.43923319,11.9206601 C4.0001764,10.6733622 4.0001764,9.00330237 4.43923319,8.00386499 L4.43821213,8.00386499 C5.00388064,6.16689908 6.78359221,4.49084258 8.96968657,4.03210082 C10.7279558,3.65931068 12.7118799,4.06308338 14.1709779,5.42831485 C14.3649797,5.23842174 16.8563717,2.80579115 17.0432261,2.60790255 C12.0584,-1.90655612 4.07675608,-0.318450116 1.09014888,5.51126815 L1.08912782,5.51126815 C1.08912782,5.51126815 1.09014888,5.51126815 1.08402251,5.52226196 L1.08402251,5.52226196 C-0.393454627,8.38565007 -0.332190889,11.7597507 1.09423313,14.4862159 C1.09014888,14.4892142 1.08708569,14.4912131 1.08402251,14.4942114 C2.37668736,17.0027992 4.72921488,18.9267162 7.5636838,19.6593038 C10.5747965,20.4488593 14.4068433,19.9091631 16.9737939,17.5874701 C16.9748149,17.5884695 16.975836,17.5894689 16.976857,17.5904684 C19.1517197,15.6315711 20.5056483,12.2944497 19.8215366,8.00386499" id="path-1"></path>
    </defs>
    <g id="Page-1" stroke="none" stroke-width="1" fill="none" fill-rule="evenodd">
        <g id="Signin" transform="translate(-467.000000, -573.000000)">
            <g id="Login-Form" transform="translate(188.000000, 188.000000)">
                <g id="Form-+-Logo">
                    <g id="Bottom-Icons" transform="translate(0.000000, 364.000000)">
                        <g id="Google" transform="translate(279.000000, 20.000000)">
                            <g id="Icon/20px-(Social)/google-[#178]" transform="translate(0.000000, 1.000000)">
                                <mask id="mask-2" fill="white">
                                    <use xlink:href="#path-1"></use>
                                </mask>
                                <use id="Icon/Social-20px/google-[#178]" fill-opacity="0" fill="#FFFFFF" fill-rule="evenodd" xlink:href="#path-1"></use>
                                <g id="⚙️Atoms/Colour/Grey-Darker/1---100%" mask="url(#mask-2)" fill="#9EA0A5" fill-rule="evenodd">
                                    <g transform="translate(-1.000000, -1.000000)" id="Colour">
                                        <rect x="0" y="0" width="22" height="22"></rect>
                                    </g>
                                </g>
                            </g>
                        </g>
                    </g>
                </g>
            </g>
        </g>
    </g>
</svg>